<svg width="21" height="21" viewBox="0 0 21 21" fill="none" xmlns="http://www.w3.org/2000/svg">
<path d="M18.5701 6.09101C18.3071 5.48208 17.9279 4.93028 17.4537 4.46648C16.9792 4.00131 16.4197 3.63164 15.8057 3.37758C15.169 3.11309 14.486 2.97771 13.7966 2.97929C12.8293 2.97929 11.8856 3.24416 11.0655 3.74447C10.8693 3.86415 10.6829 3.9956 10.5063 4.13883C10.3297 3.9956 10.1434 3.86415 9.94716 3.74447C9.12705 3.24416 8.18333 2.97929 7.21606 2.97929C6.51956 2.97929 5.84463 3.11271 5.20698 3.37758C4.59092 3.63264 4.03567 3.99953 3.55891 4.46648C3.0841 4.92975 2.70481 5.48169 2.44254 6.09101C2.16982 6.72474 2.03052 7.3977 2.03052 8.09028C2.03052 8.74363 2.16393 9.42444 2.4288 10.117C2.65051 10.6958 2.96835 11.2962 3.37448 11.9024C4.01802 12.8618 4.90287 13.8625 6.00159 14.8768C7.82232 16.5582 9.62539 17.7197 9.70191 17.7668L10.1669 18.0651C10.3729 18.1965 10.6378 18.1965 10.8438 18.0651L11.3088 17.7668C11.3853 17.7178 13.1864 16.5582 15.0091 14.8768C16.1078 13.8625 16.9927 12.8618 17.6362 11.9024C18.0423 11.2962 18.3621 10.6958 18.5819 10.117C18.8468 9.42444 18.9802 8.74363 18.9802 8.09028C18.9821 7.3977 18.8428 6.72474 18.5701 6.09101Z" fill="#D7D7D7"/>
</svg>
