<svg width="21" height="21" viewBox="0 0 21 21" fill="none" xmlns="http://www.w3.org/2000/svg">
<path d="M18.5474 6.09101C18.2844 5.48208 17.9052 4.93028 17.431 4.46648C16.9565 4.00131 16.397 3.63164 15.783 3.37758C15.1463 3.11309 14.4633 2.97771 13.7739 2.97929C12.8066 2.97929 11.8629 3.24416 11.0428 3.74447C10.8466 3.86415 10.6602 3.9956 10.4836 4.13883C10.307 3.9956 10.1207 3.86415 9.92445 3.74447C9.10434 3.24416 8.16062 2.97929 7.19336 2.97929C6.49685 2.97929 5.82193 3.11271 5.18428 3.37758C4.56821 3.63264 4.01297 3.99953 3.5362 4.46648C3.0614 4.92975 2.68211 5.48169 2.41983 6.09101C2.14711 6.72474 2.00781 7.3977 2.00781 8.09028C2.00781 8.74363 2.14123 9.42444 2.4061 10.117C2.6278 10.6958 2.94565 11.2962 3.35178 11.9024C3.99531 12.8618 4.88017 13.8625 5.97889 14.8768C7.79962 16.5582 9.60269 17.7197 9.6792 17.7668L10.1442 18.0651C10.3502 18.1965 10.6151 18.1965 10.8211 18.0651L11.2861 17.7668C11.3626 17.7178 13.1637 16.5582 14.9864 14.8768C16.0851 13.8625 16.97 12.8618 17.6135 11.9024C18.0196 11.2962 18.3394 10.6958 18.5592 10.117C18.8241 9.42444 18.9575 8.74363 18.9575 8.09028C18.9594 7.3977 18.8201 6.72474 18.5474 6.09101Z" fill="#D7D7D7"/>
</svg>
