<svg width="13" height="13" viewBox="0 0 13 13" fill="none" xmlns="http://www.w3.org/2000/svg">
<g clip-path="url(#clip0_1_1004)">
<path d="M0 1.13007C0 1.03017 0.0396882 0.934351 0.110334 0.863706C0.180979 0.79306 0.276795 0.753372 0.376703 0.753372H1.50681C1.59084 0.753395 1.67245 0.781512 1.73866 0.833252C1.80487 0.884991 1.85188 0.957382 1.87221 1.03891L2.17734 2.26018H10.9244C10.9797 2.26023 11.0343 2.27247 11.0844 2.29601C11.1344 2.31955 11.1787 2.35383 11.214 2.3964C11.2493 2.43898 11.2748 2.4888 11.2887 2.54235C11.3026 2.59589 11.3045 2.65183 11.2943 2.7062L10.1642 8.73344C10.148 8.81976 10.1022 8.89773 10.0347 8.95386C9.96713 9.00998 9.88209 9.04075 9.79427 9.04083H3.01362C2.9258 9.04075 2.84076 9.00998 2.77322 8.95386C2.70567 8.89773 2.65986 8.81976 2.6437 8.73344L1.51434 2.7175L1.21298 1.50678H0.376703C0.276795 1.50678 0.180979 1.46709 0.110334 1.39644C0.0396882 1.3258 0 1.22998 0 1.13007ZM2.33706 3.01359L3.32628 8.28743H9.4816L10.4708 3.01359H2.33706ZM3.76703 9.04083C3.3674 9.04083 2.98413 9.19958 2.70155 9.48217C2.41897 9.76475 2.26022 10.148 2.26022 10.5476C2.26022 10.9473 2.41897 11.3305 2.70155 11.6131C2.98413 11.8957 3.3674 12.0545 3.76703 12.0545C4.16666 12.0545 4.54992 11.8957 4.8325 11.6131C5.11508 11.3305 5.27384 10.9473 5.27384 10.5476C5.27384 10.148 5.11508 9.76475 4.8325 9.48217C4.54992 9.19958 4.16666 9.04083 3.76703 9.04083ZM9.04086 9.04083C8.64123 9.04083 8.25797 9.19958 7.97539 9.48217C7.69281 9.76475 7.53405 10.148 7.53405 10.5476C7.53405 10.9473 7.69281 11.3305 7.97539 11.6131C8.25797 11.8957 8.64123 12.0545 9.04086 12.0545C9.44049 12.0545 9.82376 11.8957 10.1063 11.6131C10.3889 11.3305 10.5477 10.9473 10.5477 10.5476C10.5477 10.148 10.3889 9.76475 10.1063 9.48217C9.82376 9.19958 9.44049 9.04083 9.04086 9.04083ZM3.76703 9.79424C3.96684 9.79424 4.15847 9.87361 4.29976 10.0149C4.44105 10.1562 4.52043 10.3478 4.52043 10.5476C4.52043 10.7475 4.44105 10.9391 4.29976 11.0804C4.15847 11.2217 3.96684 11.301 3.76703 11.301C3.56721 11.301 3.37558 11.2217 3.23429 11.0804C3.093 10.9391 3.01362 10.7475 3.01362 10.5476C3.01362 10.3478 3.093 10.1562 3.23429 10.0149C3.37558 9.87361 3.56721 9.79424 3.76703 9.79424ZM9.04086 9.79424C9.24068 9.79424 9.43231 9.87361 9.5736 10.0149C9.71489 10.1562 9.79427 10.3478 9.79427 10.5476C9.79427 10.7475 9.71489 10.9391 9.5736 11.0804C9.43231 11.2217 9.24068 11.301 9.04086 11.301C8.84105 11.301 8.64942 11.2217 8.50812 11.0804C8.36683 10.9391 8.28746 10.7475 8.28746 10.5476C8.28746 10.3478 8.36683 10.1562 8.50812 10.0149C8.64942 9.87361 8.84105 9.79424 9.04086 9.79424Z" fill="white"/>
</g>
<defs>
<clipPath id="clip0_1_1004">
<rect width="12.0545" height="12.0545" fill="white"/>
</clipPath>
</defs>
</svg>
