<svg width="13" height="13" viewBox="0 0 13 13" fill="none" xmlns="http://www.w3.org/2000/svg">
<path d="M0.555176 0.478753C0.555176 0.378846 0.594864 0.28303 0.665509 0.212384C0.736155 0.141739 0.831971 0.102051 0.931878 0.102051H2.06199C2.14601 0.102074 2.22762 0.130191 2.29383 0.18193C2.36004 0.23367 2.40705 0.306061 2.42739 0.387591L2.73252 1.60886H11.4796C11.5349 1.60891 11.5895 1.62114 11.6395 1.64469C11.6896 1.66823 11.7338 1.70251 11.7692 1.74508C11.8045 1.78765 11.83 1.83748 11.8438 1.89102C11.8577 1.94457 11.8597 2.00051 11.8495 2.05488L10.7194 8.08212C10.7032 8.16844 10.6574 8.24641 10.5898 8.30254C10.5223 8.35866 10.4373 8.38943 10.3494 8.38951H3.5688C3.48097 8.38943 3.39594 8.35866 3.32839 8.30254C3.26085 8.24641 3.21503 8.16844 3.19887 8.08212L2.06952 2.06618L1.76816 0.855456H0.931878C0.831971 0.855456 0.736155 0.815768 0.665509 0.745122C0.594864 0.674477 0.555176 0.578661 0.555176 0.478753ZM2.89224 2.36227L3.88146 7.6361H10.0368L11.026 2.36227H2.89224ZM4.3222 8.38951C3.92257 8.38951 3.53931 8.54826 3.25673 8.83084C2.97414 9.11343 2.81539 9.49669 2.81539 9.89632C2.81539 10.2959 2.97414 10.6792 3.25673 10.9618C3.53931 11.2444 3.92257 11.4031 4.3222 11.4031C4.72183 11.4031 5.1051 11.2444 5.38768 10.9618C5.67026 10.6792 5.82901 10.2959 5.82901 9.89632C5.82901 9.49669 5.67026 9.11343 5.38768 8.83084C5.1051 8.54826 4.72183 8.38951 4.3222 8.38951ZM9.59604 8.38951C9.19641 8.38951 8.81314 8.54826 8.53056 8.83084C8.24798 9.11343 8.08923 9.49669 8.08923 9.89632C8.08923 10.2959 8.24798 10.6792 8.53056 10.9618C8.81314 11.2444 9.19641 11.4031 9.59604 11.4031C9.99567 11.4031 10.3789 11.2444 10.6615 10.9618C10.9441 10.6792 11.1028 10.2959 11.1028 9.89632C11.1028 9.49669 10.9441 9.11343 10.6615 8.83084C10.3789 8.54826 9.99567 8.38951 9.59604 8.38951ZM4.3222 9.14291C4.52202 9.14291 4.71365 9.22229 4.85494 9.36358C4.99623 9.50487 5.07561 9.6965 5.07561 9.89632C5.07561 10.0961 4.99623 10.2878 4.85494 10.4291C4.71365 10.5703 4.52202 10.6497 4.3222 10.6497C4.12239 10.6497 3.93075 10.5703 3.78946 10.4291C3.64817 10.2878 3.5688 10.0961 3.5688 9.89632C3.5688 9.6965 3.64817 9.50487 3.78946 9.36358C3.93075 9.22229 4.12239 9.14291 4.3222 9.14291ZM9.59604 9.14291C9.79585 9.14291 9.98748 9.22229 10.1288 9.36358C10.2701 9.50487 10.3494 9.6965 10.3494 9.89632C10.3494 10.0961 10.2701 10.2878 10.1288 10.4291C9.98748 10.5703 9.79585 10.6497 9.59604 10.6497C9.39622 10.6497 9.20459 10.5703 9.0633 10.4291C8.92201 10.2878 8.84263 10.0961 8.84263 9.89632C8.84263 9.6965 8.92201 9.50487 9.0633 9.36358C9.20459 9.22229 9.39622 9.14291 9.59604 9.14291Z" fill="white"/>
</svg>
