<svg width="26" height="25" viewBox="0 0 26 25" fill="none" xmlns="http://www.w3.org/2000/svg">
<path d="M7.90615 24.4871C8.86134 24.4871 9.63567 23.7058 9.63567 22.742C9.63567 21.7782 8.86134 20.9969 7.90615 20.9969C6.95097 20.9969 6.17664 21.7782 6.17664 22.742C6.17664 23.7058 6.95097 24.4871 7.90615 24.4871Z" fill="#301F4A"/>
<path d="M16.8994 24.4871C17.8545 24.4871 18.6288 23.7058 18.6288 22.742C18.6288 21.7782 17.8545 20.9969 16.8994 20.9969C15.9442 20.9969 15.1699 21.7782 15.1699 22.742C15.1699 23.7058 15.9442 24.4871 16.8994 24.4871Z" fill="#301F4A"/>
<path d="M19.3207 11.5736C17.9447 11.5736 16.625 11.0221 15.652 10.0403C14.6789 9.05849 14.1323 7.72689 14.1323 6.33842H4.93847L4.62717 5.34024C4.59297 5.23306 4.53359 5.13582 4.45409 5.05682C4.37458 4.97781 4.27732 4.91938 4.17059 4.88652L1.33427 4.007C1.24705 3.97996 1.15542 3.97051 1.06459 3.97921C0.973756 3.9879 0.885512 4.01456 0.804893 4.05766C0.642076 4.14472 0.520199 4.29347 0.466074 4.47119C0.41195 4.64891 0.430011 4.84105 0.516285 5.00534C0.602559 5.16963 0.749978 5.2926 0.926112 5.34722L3.40963 6.11505L6.57801 16.2156L5.4504 17.1509L5.36046 17.2417C5.0816 17.5675 4.92361 17.9809 4.91352 18.4113C4.90342 18.8417 5.04185 19.2622 5.30512 19.601C5.49367 19.8324 5.73327 20.016 6.00475 20.1372C6.27623 20.2584 6.57205 20.3138 6.86856 20.299H18.4145C18.5979 20.299 18.7739 20.2255 18.9036 20.0946C19.0334 19.9637 19.1063 19.7861 19.1063 19.601C19.1063 19.4159 19.0334 19.2383 18.9036 19.1074C18.7739 18.9765 18.5979 18.903 18.4145 18.903H6.75787C6.67821 18.9002 6.6006 18.8768 6.53253 18.8349C6.46446 18.7931 6.40824 18.7342 6.36929 18.6641C6.33035 18.5939 6.30999 18.5148 6.3102 18.4344C6.31041 18.3539 6.33117 18.2749 6.37047 18.2049L8.03768 16.8089H18.7119C18.87 16.8135 19.0248 16.7634 19.1507 16.6669C19.2765 16.5704 19.3659 16.4333 19.4037 16.2784L20.5867 11.3922C20.1737 11.5052 19.7485 11.5661 19.3207 11.5736Z" fill="#301F4A"/>
<path d="M20.7048 9.82846C23.3793 9.82846 25.5473 7.64082 25.5473 4.94224C25.5473 2.24366 23.3793 0.0560303 20.7048 0.0560303C18.0304 0.0560303 15.8623 2.24366 15.8623 4.94224C15.8623 7.64082 18.0304 9.82846 20.7048 9.82846Z" fill="#FA5C98"/>
</svg>
